# xmcd CD database file
#
# Track frame offsets:
#	150
#	19919
#	42165
#	80196
#	103889
#	130389
#	146502
#	163029
#	198389
#	253171
#
# Disc length: 3798 seconds
#
# Revision: 6
# Processed by: cddbd v1.5.2PL0 Copyright (c) Steve Scherf et al.
# Submitted via: CDex 1.51
#
DISCID=920ed40a
DTITLE=Mel Brown And The Homewreckers - Homewreckin' Done Live
DYEAR=1998
DGENRE=Blues
TTITLE0=Woke Up This Morning
TTITLE1=Fannie Mae
TTITLE2=The Sky Is Crying
TTITLE3=I'm Your Hoochie Coochie Man
TTITLE4=I'll Play The Blues For You
TTITLE5=Billie Jean
TTITLE6=Honeybee
TTITLE7=Spoonful
TTITLE8=Hey Joe
TTITLE9=Turn On Your Love Light
EXTD=YEAR: 1998
EXTT0=
EXTT1=
EXTT2=
EXTT3=
EXTT4=
EXTT5=
EXTT6=
EXTT7=
EXTT8=
EXTT9=
PLAYORDER=
